<svg width="64" height="64" viewBox="0 0 64 64" fill="none" xmlns="http://www.w3.org/2000/svg">
  <rect width="64" height="64" rx="12" fill="url(#gradient)"/>
  <path d="M20 24C20 21.7909 21.7909 20 24 20H32C34.2091 20 36 21.7909 36 24V28H40C42.2091 28 44 29.7909 44 32V40C44 42.2091 42.2091 44 40 44H32C29.7909 44 28 42.2091 28 40V36H24C21.7909 36 20 34.2091 20 32V24Z" fill="white"/>
  <circle cx="30" cy="26" r="2" fill="url(#gradient)"/>
  <circle cx="38" cy="34" r="2" fill="url(#gradient)"/>
  <defs>
    <linearGradient id="gradient" x1="0" y1="0" x2="64" y2="64" gradientUnits="userSpaceOnUse">
      <stop stop-color="#10a37f"/>
      <stop offset="1" stop-color="#ff6b6b"/>
    </linearGradient>
  </defs>
</svg>

