<svg width="96" height="95" viewBox="0 0 96 95" fill="none" xmlns="http://www.w3.org/2000/svg">
<path d="M86.2228 19.9976C80.6228 12.0976 72.7228 6.09758 63.6228 2.79758C45.0228 -4.00242 23.4228 1.89758 10.9228 17.1976C4.62282 24.7976 0.822819 34.1976 0.122819 43.9976C-0.577181 53.6976 1.72282 63.6976 6.82282 72.0976C11.7228 80.0976 19.1228 86.7976 27.7228 90.6976C36.9228 94.8976 47.2228 95.9976 57.1228 93.9976C76.1228 90.1976 91.4228 74.1976 94.4228 55.0976C94.8228 52.5976 95.0228 50.0976 95.0228 47.4976C94.9228 37.6976 91.9228 27.9976 86.2228 19.9976ZM62.2228 87.2976C53.8228 90.3976 44.5228 90.7976 35.9228 88.2976C27.6228 85.9976 20.2228 81.0976 14.7228 74.3976C3.32282 60.6976 1.92282 40.5976 11.1228 25.3976C20.2228 10.3976 38.4228 2.29758 55.8228 5.79758C73.1228 9.29758 86.6228 23.3976 89.5228 40.8976C89.8228 43.0976 90.0228 45.2976 90.0228 47.4976C89.9228 64.9976 78.8228 81.2976 62.2228 87.2976Z" fill="black"/>
</svg>
