<svg width="80" height="80" viewBox="0 0 80 80" fill="none" xmlns="http://www.w3.org/2000/svg">
<path fill-rule="evenodd" clip-rule="evenodd" d="M48.789 8.23424C55.4374 1.58584 64.969 -1.29696 74.184 0.546739L77.2699 1.16393L77.4144 1.19909C78.1332 1.39831 78.6878 1.98815 78.8363 2.73029L79.4535 5.81229L79.6137 6.67948C81.1137 15.6248 78.2035 24.7695 71.766 31.2105L69.8949 33.0777C69.1136 33.8589 67.848 33.8589 67.0668 33.0777L58.4066 24.4175L55.3285 27.4956C59.7191 32.2808 63.1176 37.9876 64.5473 43.7766C64.8129 44.8469 64.1566 45.9328 63.0864 46.1985C62.0122 46.4602 60.9302 45.8079 60.6645 44.7337C59.4379 39.7806 56.477 34.6947 52.4965 30.3277L47.7699 35.0582C51.2504 38.8902 54.0121 43.3863 55.2972 47.9062C55.5979 48.9687 54.9807 50.0742 53.9183 50.375C52.8558 50.6797 51.7503 50.0625 51.4495 49C50.3831 45.2539 48.0354 41.3359 44.9378 37.887L40.1917 42.6331C42.6839 45.555 44.5198 49.0667 45.1995 52.7541L45.2737 53.172L45.2971 53.3791C45.3557 54.3908 44.637 55.301 43.6135 55.465C42.5901 55.629 41.6252 54.9845 41.3674 54.0041L41.3244 53.8049L41.2658 53.4767C40.7502 50.6759 39.3478 47.8869 37.3517 45.4728L31.7579 51.0705C33.0587 52.7932 33.9688 54.801 34.3009 56.9143L34.3752 57.4729L34.3869 57.676C34.3908 58.6916 33.6291 59.5627 32.6017 59.676C31.5705 59.7854 30.6408 59.094 30.4298 58.1057L30.3985 57.9026L30.3478 57.5198C30.1446 56.2542 29.629 55.0315 28.8908 53.9339L24.0783 58.7503C30.2267 62.6761 32.0392 70.7153 28.3283 77.1953L28.1368 77.5156L27.215 79.0351C26.6603 79.9531 25.4806 80.2695 24.5431 79.7539L23.0314 78.9257C17.3595 75.8202 14.9337 69.414 16.547 63.4487C10.6993 65.0307 4.42196 62.73 1.25396 57.2885L1.07427 56.9682L0.246152 55.4565C-0.269468 54.5151 0.0469319 53.3393 0.960992 52.7846L2.48439 51.8628L2.8047 51.6713C9.2813 47.9565 17.3247 49.769 21.2497 55.9213L26.0622 51.1049C24.9684 50.3706 23.7419 49.8549 22.4802 49.6518L22.0974 49.6011L21.8943 49.5698C20.9021 49.3589 20.2107 48.4253 20.324 47.3979C20.4373 46.3706 21.3084 45.6088 22.324 45.6127L22.5271 45.6244L23.0818 45.6987C25.199 46.0307 27.2068 46.9409 28.9295 48.2417L34.5233 42.644C32.1131 40.6479 29.3241 39.2495 26.5233 38.7338L26.1952 38.6752L25.992 38.6322C25.0155 38.3705 24.3709 37.4056 24.535 36.3861C24.6991 35.3627 25.6092 34.6439 26.6209 34.7025L26.8241 34.7259L27.2459 34.7962C30.9334 35.4798 34.4412 37.3118 37.3629 39.804L42.109 35.0579C38.6598 31.9641 34.7457 29.6165 31 28.5501C29.9375 28.2494 29.3203 27.1439 29.6211 26.0813C29.9258 25.0188 31.0313 24.4016 32.0938 24.7024C36.6094 25.9876 41.1055 28.7493 44.9418 32.2297L49.6684 27.4992C45.3012 23.5226 40.2192 20.5617 35.2624 19.3351C34.1921 19.0695 33.5358 17.9835 33.8015 16.9132C34.0672 15.8429 35.1531 15.1866 36.2234 15.4523C42.0086 16.882 47.7194 20.2804 52.5004 24.6671L55.5785 21.589L46.9223 12.9328C46.1411 12.1516 46.1411 10.8859 46.9223 10.1047L48.789 8.23424ZM67 9.99984C65.8945 9.99984 65 10.8944 65 11.9998C65 13.1053 65.8945 13.9998 67 13.9998C68.1054 13.9998 69 13.1053 69 11.9998C69 10.8944 68.1054 9.99984 67 9.99984Z" fill="black"/>
</svg>
